<?xml version="1.0" encoding="UTF-8"?>
<svg id="Layer_2" data-name="Layer 2" xmlns="http://www.w3.org/2000/svg" viewBox="0 0 651.58 221.17">
  <defs>
    <style>
      .cls-1 {
        letter-spacing: .09em;
      }

      .cls-2 {
        letter-spacing: -.03em;
      }

      .cls-3 {
        letter-spacing: .09em;
      }

      .cls-4, .cls-5, .cls-6 {
        fill: #076a8f;
      }

      .cls-4, .cls-7 {
        stroke-width: 0px;
      }

      .cls-8 {
        letter-spacing: .08em;
      }

      .cls-9 {
        letter-spacing: .06em;
      }

      .cls-5 {
        font-family: Montserrat-Medium, Montserrat;
        font-size: 20.9px;
        font-weight: 500;
      }

      .cls-10 {
        letter-spacing: .02em;
      }

      .cls-11 {
        letter-spacing: 0em;
      }

      .cls-12 {
        letter-spacing: -.02em;
      }

      .cls-13 {
        letter-spacing: .07em;
      }

      .cls-7, .cls-14 {
        fill: #f79648;
      }

      .cls-14 {
        font-family: MusticaPro-SemiBold, 'Mustica Pro';
        font-size: 53.39px;
        font-weight: 600;
      }

      .cls-15 {
        letter-spacing: .09em;
      }

      .cls-16 {
        letter-spacing: .09em;
      }

      .cls-6 {
        font-family: ClassicRobot-Bold, 'Classic Robot';
        font-size: 96.92px;
        font-weight: 700;
      }

      .cls-17 {
        letter-spacing: .09em;
      }

      .cls-18 {
        letter-spacing: .09em;
      }

      .cls-19 {
        letter-spacing: 0em;
      }

      .cls-20 {
        letter-spacing: .07em;
      }

      .cls-21 {
        letter-spacing: 0em;
      }

      .cls-22 {
        letter-spacing: .07em;
      }

      .cls-23 {
        letter-spacing: .09em;
      }
    </style>
  </defs>
  <g id="Layer_1-2" data-name="Layer 1">
    <g>
      <text class="cls-6" transform="translate(238.51 124.01)"><tspan class="cls-10" x="0" y="0">A</tspan><tspan class="cls-16" x="73.36" y="0">M</tspan><tspan class="cls-13" x="162.38" y="0">E</tspan><tspan class="cls-15" x="230.29" y="0">R</tspan><tspan class="cls-1" x="314.54" y="0">I</tspan><tspan class="cls-18" x="342.08" y="0">S</tspan></text>
      <text class="cls-14" transform="translate(237.32 183.55)"><tspan class="cls-21" x="0" y="0">T</tspan><tspan class="cls-19" x="32.3" y="0">E</tspan><tspan class="cls-12" x="62.62" y="0">C</tspan><tspan x="99.25" y="0">H</tspan><tspan class="cls-11" x="137.36" y="0">NO</tspan><tspan class="cls-2" x="218.41" y="0">L</tspan><tspan x="246.59" y="0">OGIES</tspan></text>
      <path class="cls-4" d="M148.09,53.04c-4.72,4.67-9.05,8.93-13.35,13.22-24.78,24.76-49.54,49.53-74.31,74.3-13.67,13.67-27.35,27.34-41,41.03-1.13,1.13-2.29,1.68-3.95,1.64-4.2-.12-10.74-.04-15.48-.04,1.23-1.28,2.12-2.26,3.05-3.19,19.57-19.58,39.15-39.15,58.72-58.72,22.64-22.63,45.29-45.25,67.85-67.96,1.23-1.24,2.23-.53,3.36-.53,3.7,0,7.41.02,11.11.05.35,0,3.03.08,3.99.21Z"/>
      <polygon class="cls-7" points="147.69 53.45 129.49 53.45 182.63 0 182.63 183.37 147.69 183.37 147.69 53.45"/>
      <rect class="cls-4" x="135.13" y="70.76" width="85.01" height="36.08"/>
      <polygon class="cls-7" points="217.54 73.51 217.54 104.09 137.74 104.09 217.54 73.51"/>
      <text class="cls-5" transform="translate(407.04 215.76)"><tspan class="cls-3" x="0" y="0">D</tspan><tspan class="cls-8" x="19.06" y="0">r</tspan><tspan class="cls-3" x="29.29" y="0">i</tspan><tspan class="cls-22" x="36.92" y="0">v</tspan><tspan class="cls-23" x="50.08" y="0">en </tspan><tspan class="cls-20" x="88.13" y="0">b</tspan><tspan class="cls-17" x="103.87" y="0">y </tspan><tspan class="cls-9" x="124.77" y="0">C</tspan><tspan class="cls-23" x="141.22" y="0">ohesion</tspan></text>
    </g>
  </g>
</svg>